<?xml version="1.0" encoding="utf-8"?>
<!-- Svg Vector Icons : http://www.onlinewebfonts.com/icon -->
<!DOCTYPE svg PUBLIC "-//W3C//DTD SVG 1.1//EN" "http://www.w3.org/Graphics/SVG/1.1/DTD/svg11.dtd">
<svg version="1.1" xmlns="http://www.w3.org/2000/svg" xmlns:xlink="http://www.w3.org/1999/xlink" x="0px" y="0px" viewBox="0 0 1000 1000" enable-background="new 0 0 1000 1000" xml:space="preserve">
<metadata> Svg Vector Icons : http://www.onlinewebfonts.com/icon </metadata>
<g><path d="M143.6,99.1h712.7c36.9,0,68.4,13,94.5,39.2c26.1,26.1,39.2,57.6,39.2,94.5v534.5c0,36.9-13.1,68.4-39.2,94.5c-26.1,26.1-57.6,39.2-94.5,39.2H143.6c-36.9,0-68.4-13.1-94.5-39.2C23.1,835.7,10,804.2,10,767.3V232.7c0-36.9,13.1-68.4,39.2-94.5C75.3,112.1,106.7,99.1,143.6,99.1z M900.9,767.3V280.7L527.9,579.3c-7.9,6.5-17.2,9.8-27.8,9.8s-20-3.2-27.8-9.8L99.1,280.7v486.5c0,12.3,4.3,22.8,13,31.5s19.2,13,31.5,13h712.7c12.3,0,22.8-4.3,31.5-13C896.6,790.1,900.9,779.6,900.9,767.3L900.9,767.3z M856.4,188.2H143.7c-4.4,0-9.3,0.8-14.6,2.4l371,296.8l371-296.8C865.7,189,860.8,188.2,856.4,188.2L856.4,188.2z"/></g>
</svg>