<?xml version="1.0" encoding="utf-8"?>
<!-- Svg Vector Icons : http://www.onlinewebfonts.com/icon -->
<!DOCTYPE svg PUBLIC "-//W3C//DTD SVG 1.1//EN" "http://www.w3.org/Graphics/SVG/1.1/DTD/svg11.dtd">
<svg version="1.1" xmlns="http://www.w3.org/2000/svg" xmlns:xlink="http://www.w3.org/1999/xlink" x="0px" y="0px" viewBox="0 0 1000 1000" enable-background="new 0 0 1000 1000" xml:space="preserve">
<metadata> Svg Vector Icons : http://www.onlinewebfonts.com/icon </metadata>
<g><path d="M518.6,730.7l107-118.5l277.8,231.2c-9.7,30.4-19.5,46.8-47.8,73.8c-63.7,60.8-131.3,78.2-191,71.1l-0.8,1.6c-173.8-31.7-334.1-162.5-433.6-324.2C134.8,510.5,71.6,349.3,106,195.4c3.1-18.7,8.7-37.7,17-56.1c0.2-0.7,0.4-1.4,0.7-2.1h0.2C154.3,71.7,218.8,14.4,324.6,10l125.2,349.9l-148.7,55.5C348.8,556,412.6,655.5,518.6,730.7z"/></g>
</svg>